<mxfile host="app.diagrams.net" modified="2024-06-06T14:02:39.845Z" agent="Mozilla/5.0 (X11; Ubuntu; Linux x86_64; rv:126.0) Gecko/20100101 Firefox/126.0" etag="uuLQg_V777uvD9EncuBS" version="24.4.15" type="github">
  <diagram id="C5RBs43oDa-KdzZeNtuy" name="Page-1">
    <mxGraphModel dx="844" dy="445" grid="0" gridSize="10" guides="1" tooltips="1" connect="1" arrows="1" fold="1" page="1" pageScale="1" pageWidth="827" pageHeight="1169" math="0" shadow="0">
      <root>
        <mxCell id="WIyWlLk6GJQsqaUBKTNV-0" />
        <mxCell id="WIyWlLk6GJQsqaUBKTNV-1" parent="WIyWlLk6GJQsqaUBKTNV-0" />
        <mxCell id="I57wutEuGGv7QZFJ-WTR-0" value="" style="shape=folder;fontStyle=1;spacingTop=10;tabWidth=210;tabHeight=30;tabPosition=left;html=1;whiteSpace=wrap;" parent="WIyWlLk6GJQsqaUBKTNV-1" vertex="1">
          <mxGeometry x="19" y="230" width="651" height="320" as="geometry" />
        </mxCell>
        <mxCell id="I57wutEuGGv7QZFJ-WTR-24" value="&lt;font color=&quot;#ffffff&quot;&gt;Interfaccia GestioneUtente&lt;/font&gt;" style="text;strokeColor=#C73500;fillColor=#fa6800;html=1;align=center;verticalAlign=middle;whiteSpace=wrap;rounded=0;fontSize=16;fontColor=#000000;" parent="WIyWlLk6GJQsqaUBKTNV-1" vertex="1">
          <mxGeometry x="20" y="230" width="211" height="30" as="geometry" />
        </mxCell>
        <mxCell id="I57wutEuGGv7QZFJ-WTR-25" style="edgeStyle=none;curved=1;rounded=0;orthogonalLoop=1;jettySize=auto;html=1;exitX=0.5;exitY=0;exitDx=0;exitDy=0;fontSize=12;startSize=8;endSize=8;" parent="WIyWlLk6GJQsqaUBKTNV-1" edge="1">
          <mxGeometry relative="1" as="geometry">
            <mxPoint x="434" y="314" as="sourcePoint" />
            <mxPoint x="434" y="314" as="targetPoint" />
          </mxGeometry>
        </mxCell>
        <mxCell id="qMQlJpSZZ2h1YUX2fMPP-8" value="" style="shape=folder;fontStyle=1;spacingTop=10;tabWidth=156;tabHeight=30;tabPosition=left;html=1;whiteSpace=wrap;" parent="WIyWlLk6GJQsqaUBKTNV-1" vertex="1">
          <mxGeometry x="190" y="640" width="264.5" height="189" as="geometry" />
        </mxCell>
        <mxCell id="qMQlJpSZZ2h1YUX2fMPP-16" value="GestioneUtente&amp;nbsp;&amp;nbsp;&amp;nbsp;&amp;nbsp;&amp;nbsp;&amp;nbsp; " style="text;html=1;align=center;verticalAlign=middle;resizable=0;points=[];autosize=1;fontSize=16;fillColor=#60a917;fontColor=#ffffff;strokeColor=#2D7600;" parent="WIyWlLk6GJQsqaUBKTNV-1" vertex="1">
          <mxGeometry x="190" y="640" width="160" height="30" as="geometry" />
        </mxCell>
        <mxCell id="qMQlJpSZZ2h1YUX2fMPP-30" value="&lt;font color=&quot;#ffffff&quot;&gt;View GestioneAccount&lt;br&gt;&lt;/font&gt;" style="swimlane;fontStyle=1;align=center;verticalAlign=top;childLayout=stackLayout;horizontal=1;startSize=26;horizontalStack=0;resizeParent=1;resizeParentMax=0;resizeLast=0;collapsible=1;marginBottom=0;whiteSpace=wrap;html=1;fillColor=#fa6800;fontColor=#000000;strokeColor=#C73500;" parent="WIyWlLk6GJQsqaUBKTNV-1" vertex="1">
          <mxGeometry x="90" y="430" width="150" height="70" as="geometry" />
        </mxCell>
        <mxCell id="qMQlJpSZZ2h1YUX2fMPP-31" value="" style="text;strokeColor=#C73500;fillColor=#fa6800;align=left;verticalAlign=top;spacingLeft=4;spacingRight=4;overflow=hidden;rotatable=0;points=[[0,0.5],[1,0.5]];portConstraint=eastwest;whiteSpace=wrap;html=1;fontColor=#000000;" parent="qMQlJpSZZ2h1YUX2fMPP-30" vertex="1">
          <mxGeometry y="26" width="150" height="24" as="geometry" />
        </mxCell>
        <mxCell id="qMQlJpSZZ2h1YUX2fMPP-32" value="" style="line;strokeWidth=1;fillColor=#fa6800;align=left;verticalAlign=middle;spacingTop=-1;spacingLeft=3;spacingRight=3;rotatable=0;labelPosition=right;points=[];portConstraint=eastwest;strokeColor=#FF8000;fontColor=#000000;" parent="qMQlJpSZZ2h1YUX2fMPP-30" vertex="1">
          <mxGeometry y="50" width="150" as="geometry" />
        </mxCell>
        <mxCell id="qMQlJpSZZ2h1YUX2fMPP-33" value="&lt;div&gt;&lt;br&gt;&lt;/div&gt;&lt;div&gt;&lt;br&gt;&lt;/div&gt;" style="text;strokeColor=#C73500;fillColor=#fa6800;align=left;verticalAlign=top;spacingLeft=4;spacingRight=4;overflow=hidden;rotatable=0;points=[[0,0.5],[1,0.5]];portConstraint=eastwest;whiteSpace=wrap;html=1;fontColor=#000000;" parent="qMQlJpSZZ2h1YUX2fMPP-30" vertex="1">
          <mxGeometry y="50" width="150" height="20" as="geometry" />
        </mxCell>
        <mxCell id="qMQlJpSZZ2h1YUX2fMPP-35" value="&lt;font color=&quot;#ffffff&quot;&gt;ViewGestioneMetodoPagamento&lt;/font&gt;" style="swimlane;fontStyle=1;align=center;verticalAlign=top;childLayout=stackLayout;horizontal=1;startSize=26;horizontalStack=0;resizeParent=1;resizeParentMax=0;resizeLast=0;collapsible=1;marginBottom=0;whiteSpace=wrap;html=1;fillColor=#fa6800;fontColor=#000000;strokeColor=#C73500;" parent="WIyWlLk6GJQsqaUBKTNV-1" vertex="1">
          <mxGeometry x="444" y="430" width="209" height="70" as="geometry" />
        </mxCell>
        <mxCell id="qMQlJpSZZ2h1YUX2fMPP-36" value="" style="text;strokeColor=#C73500;fillColor=#fa6800;align=left;verticalAlign=top;spacingLeft=4;spacingRight=4;overflow=hidden;rotatable=0;points=[[0,0.5],[1,0.5]];portConstraint=eastwest;whiteSpace=wrap;html=1;fontColor=#000000;" parent="qMQlJpSZZ2h1YUX2fMPP-35" vertex="1">
          <mxGeometry y="26" width="209" height="24" as="geometry" />
        </mxCell>
        <mxCell id="qMQlJpSZZ2h1YUX2fMPP-37" value="" style="line;strokeWidth=1;fillColor=#fa6800;align=left;verticalAlign=middle;spacingTop=-1;spacingLeft=3;spacingRight=3;rotatable=0;labelPosition=right;points=[];portConstraint=eastwest;strokeColor=#FF8000;fontColor=#000000;" parent="qMQlJpSZZ2h1YUX2fMPP-35" vertex="1">
          <mxGeometry y="50" width="209" as="geometry" />
        </mxCell>
        <mxCell id="qMQlJpSZZ2h1YUX2fMPP-38" value="&lt;div&gt;&lt;br&gt;&lt;/div&gt;&lt;div&gt;&lt;br&gt;&lt;/div&gt;" style="text;strokeColor=#C73500;fillColor=#fa6800;align=left;verticalAlign=top;spacingLeft=4;spacingRight=4;overflow=hidden;rotatable=0;points=[[0,0.5],[1,0.5]];portConstraint=eastwest;whiteSpace=wrap;html=1;fontColor=#000000;" parent="qMQlJpSZZ2h1YUX2fMPP-35" vertex="1">
          <mxGeometry y="50" width="209" height="20" as="geometry" />
        </mxCell>
        <mxCell id="qMQlJpSZZ2h1YUX2fMPP-39" value="&lt;font color=&quot;#ffffff&quot;&gt;Home GestioneUtente&lt;br&gt;&lt;/font&gt;" style="swimlane;fontStyle=1;align=center;verticalAlign=top;childLayout=stackLayout;horizontal=1;startSize=26;horizontalStack=0;resizeParent=1;resizeParentMax=0;resizeLast=0;collapsible=1;marginBottom=0;whiteSpace=wrap;html=1;fillColor=#fa6800;fontColor=#000000;strokeColor=#C73500;" parent="WIyWlLk6GJQsqaUBKTNV-1" vertex="1">
          <mxGeometry x="290" y="310" width="150" height="70" as="geometry" />
        </mxCell>
        <mxCell id="qMQlJpSZZ2h1YUX2fMPP-40" value="" style="text;strokeColor=#C73500;fillColor=#fa6800;align=left;verticalAlign=top;spacingLeft=4;spacingRight=4;overflow=hidden;rotatable=0;points=[[0,0.5],[1,0.5]];portConstraint=eastwest;whiteSpace=wrap;html=1;fontColor=#000000;" parent="qMQlJpSZZ2h1YUX2fMPP-39" vertex="1">
          <mxGeometry y="26" width="150" height="24" as="geometry" />
        </mxCell>
        <mxCell id="qMQlJpSZZ2h1YUX2fMPP-41" value="" style="line;strokeWidth=1;fillColor=#fa6800;align=left;verticalAlign=middle;spacingTop=-1;spacingLeft=3;spacingRight=3;rotatable=0;labelPosition=right;points=[];portConstraint=eastwest;strokeColor=#FF8000;fontColor=#000000;" parent="qMQlJpSZZ2h1YUX2fMPP-39" vertex="1">
          <mxGeometry y="50" width="150" as="geometry" />
        </mxCell>
        <mxCell id="qMQlJpSZZ2h1YUX2fMPP-42" value="&lt;div&gt;&lt;br&gt;&lt;/div&gt;&lt;div&gt;&lt;br&gt;&lt;/div&gt;" style="text;strokeColor=#C73500;fillColor=#fa6800;align=left;verticalAlign=top;spacingLeft=4;spacingRight=4;overflow=hidden;rotatable=0;points=[[0,0.5],[1,0.5]];portConstraint=eastwest;whiteSpace=wrap;html=1;fontColor=#000000;" parent="qMQlJpSZZ2h1YUX2fMPP-39" vertex="1">
          <mxGeometry y="50" width="150" height="20" as="geometry" />
        </mxCell>
        <mxCell id="qMQlJpSZZ2h1YUX2fMPP-43" value="&lt;font color=&quot;#ffffff&quot;&gt;GestioneUtente Controller&lt;br&gt;&lt;/font&gt;" style="swimlane;fontStyle=1;align=center;verticalAlign=top;childLayout=stackLayout;horizontal=1;startSize=26;horizontalStack=0;resizeParent=1;resizeParentMax=0;resizeLast=0;collapsible=1;marginBottom=0;whiteSpace=wrap;html=1;fillColor=#60a917;fontColor=#ffffff;strokeColor=#2D7600;" parent="WIyWlLk6GJQsqaUBKTNV-1" vertex="1">
          <mxGeometry x="237.25" y="699" width="200.75" height="118" as="geometry" />
        </mxCell>
        <mxCell id="qMQlJpSZZ2h1YUX2fMPP-44" value="" style="text;strokeColor=#2D7600;fillColor=#60a917;align=left;verticalAlign=top;spacingLeft=4;spacingRight=4;overflow=hidden;rotatable=0;points=[[0,0.5],[1,0.5]];portConstraint=eastwest;whiteSpace=wrap;html=1;fontColor=#ffffff;" parent="qMQlJpSZZ2h1YUX2fMPP-43" vertex="1">
          <mxGeometry y="26" width="200.75" height="24" as="geometry" />
        </mxCell>
        <mxCell id="qMQlJpSZZ2h1YUX2fMPP-45" value="" style="line;strokeWidth=1;fillColor=#fa6800;align=left;verticalAlign=middle;spacingTop=-1;spacingLeft=3;spacingRight=3;rotatable=0;labelPosition=right;points=[];portConstraint=eastwest;strokeColor=#FF8000;fontColor=#000000;" parent="qMQlJpSZZ2h1YUX2fMPP-43" vertex="1">
          <mxGeometry y="50" width="200.75" as="geometry" />
        </mxCell>
        <mxCell id="qMQlJpSZZ2h1YUX2fMPP-46" value="&lt;div&gt;+ cambiaNome(Username)&lt;/div&gt;&lt;div&gt;+ cambiaPassword(Password)&lt;br&gt;&lt;/div&gt;&lt;div&gt;+ aggiornaMetodoPagamento(Tipo)&lt;br&gt;&lt;/div&gt;&lt;div&gt;+ visualizzaAbbonamentiPassati()&lt;br&gt;&lt;/div&gt;" style="text;strokeColor=#2D7600;fillColor=#60a917;align=left;verticalAlign=top;spacingLeft=4;spacingRight=4;overflow=hidden;rotatable=0;points=[[0,0.5],[1,0.5]];portConstraint=eastwest;whiteSpace=wrap;html=1;fontColor=#ffffff;" parent="qMQlJpSZZ2h1YUX2fMPP-43" vertex="1">
          <mxGeometry y="50" width="200.75" height="68" as="geometry" />
        </mxCell>
        <mxCell id="qMQlJpSZZ2h1YUX2fMPP-47" style="edgeStyle=none;curved=1;rounded=0;orthogonalLoop=1;jettySize=auto;html=1;exitX=0.5;exitY=1;exitDx=0;exitDy=0;fontSize=12;startSize=8;endSize=8;dashed=1;" parent="WIyWlLk6GJQsqaUBKTNV-1" source="qMQlJpSZZ2h1YUX2fMPP-39" edge="1">
          <mxGeometry relative="1" as="geometry">
            <mxPoint x="368" y="696" as="targetPoint" />
          </mxGeometry>
        </mxCell>
        <mxCell id="qMQlJpSZZ2h1YUX2fMPP-55" value="&amp;lt;&amp;lt;use&amp;gt;&amp;gt;" style="edgeLabel;html=1;align=center;verticalAlign=middle;resizable=0;points=[];fontSize=12;" parent="qMQlJpSZZ2h1YUX2fMPP-47" vertex="1" connectable="0">
          <mxGeometry x="-0.3538" y="5" relative="1" as="geometry">
            <mxPoint x="-5" y="37" as="offset" />
          </mxGeometry>
        </mxCell>
        <mxCell id="qMQlJpSZZ2h1YUX2fMPP-49" style="edgeStyle=none;curved=0;rounded=0;orthogonalLoop=1;jettySize=auto;html=1;exitX=0.5;exitY=1;exitDx=0;exitDy=0;fontSize=12;startSize=8;endSize=8;entryX=0;entryY=0.25;entryDx=0;entryDy=0;dashed=1;strokeColor=none;" parent="WIyWlLk6GJQsqaUBKTNV-1" target="qMQlJpSZZ2h1YUX2fMPP-43" edge="1">
          <mxGeometry relative="1" as="geometry">
            <mxPoint x="110" y="500" as="sourcePoint" />
            <mxPoint x="110" y="819" as="targetPoint" />
            <Array as="points">
              <mxPoint x="110" y="720" />
            </Array>
          </mxGeometry>
        </mxCell>
        <mxCell id="qMQlJpSZZ2h1YUX2fMPP-50" style="edgeStyle=none;curved=0;rounded=0;orthogonalLoop=1;jettySize=auto;html=1;exitX=0.5;exitY=1;exitDx=0;exitDy=0;fontSize=12;startSize=8;endSize=8;dashed=1;" parent="WIyWlLk6GJQsqaUBKTNV-1" target="qMQlJpSZZ2h1YUX2fMPP-44" edge="1">
          <mxGeometry relative="1" as="geometry">
            <mxPoint x="140" y="500" as="sourcePoint" />
            <mxPoint x="140" y="880" as="targetPoint" />
            <Array as="points">
              <mxPoint x="140" y="737" />
            </Array>
          </mxGeometry>
        </mxCell>
        <mxCell id="qMQlJpSZZ2h1YUX2fMPP-56" value="&amp;lt;&amp;lt;use&amp;gt;&amp;gt;" style="edgeLabel;html=1;align=center;verticalAlign=middle;resizable=0;points=[];fontSize=12;" parent="qMQlJpSZZ2h1YUX2fMPP-50" vertex="1" connectable="0">
          <mxGeometry x="-0.272" y="-1" relative="1" as="geometry">
            <mxPoint as="offset" />
          </mxGeometry>
        </mxCell>
        <mxCell id="qMQlJpSZZ2h1YUX2fMPP-51" style="edgeStyle=none;curved=0;rounded=0;orthogonalLoop=1;jettySize=auto;html=1;exitX=0.5;exitY=1;exitDx=0;exitDy=0;fontSize=12;startSize=8;endSize=8;dashed=1;entryX=1;entryY=0.5;entryDx=0;entryDy=0;" parent="WIyWlLk6GJQsqaUBKTNV-1" target="qMQlJpSZZ2h1YUX2fMPP-44" edge="1">
          <mxGeometry relative="1" as="geometry">
            <mxPoint x="560" y="500" as="sourcePoint" />
            <mxPoint x="657" y="737" as="targetPoint" />
            <Array as="points">
              <mxPoint x="560" y="737" />
            </Array>
          </mxGeometry>
        </mxCell>
        <mxCell id="qMQlJpSZZ2h1YUX2fMPP-54" value="&amp;lt;&amp;lt;use&amp;gt;&amp;gt;" style="edgeLabel;html=1;align=center;verticalAlign=middle;resizable=0;points=[];fontSize=12;" parent="qMQlJpSZZ2h1YUX2fMPP-51" vertex="1" connectable="0">
          <mxGeometry x="-0.3526" relative="1" as="geometry">
            <mxPoint as="offset" />
          </mxGeometry>
        </mxCell>
        <mxCell id="qMQlJpSZZ2h1YUX2fMPP-52" style="edgeStyle=none;curved=0;rounded=0;orthogonalLoop=1;jettySize=auto;html=1;exitX=1;exitY=0.5;exitDx=0;exitDy=0;fontSize=12;startSize=8;endSize=8;" parent="WIyWlLk6GJQsqaUBKTNV-1" source="qMQlJpSZZ2h1YUX2fMPP-40" edge="1">
          <mxGeometry relative="1" as="geometry">
            <mxPoint x="571" y="428" as="targetPoint" />
            <Array as="points">
              <mxPoint x="570" y="348" />
            </Array>
          </mxGeometry>
        </mxCell>
        <mxCell id="qMQlJpSZZ2h1YUX2fMPP-53" style="edgeStyle=none;curved=0;rounded=0;orthogonalLoop=1;jettySize=auto;html=1;fontSize=12;startSize=8;endSize=8;entryX=0.613;entryY=0.025;entryDx=0;entryDy=0;entryPerimeter=0;" parent="WIyWlLk6GJQsqaUBKTNV-1" edge="1">
          <mxGeometry relative="1" as="geometry">
            <mxPoint x="290" y="349.13" as="sourcePoint" />
            <mxPoint x="171.94999999999993" y="430.88" as="targetPoint" />
            <Array as="points">
              <mxPoint x="172" y="349.13" />
            </Array>
          </mxGeometry>
        </mxCell>
        <mxCell id="wQEvevjcP_nHAKgSfiP8-0" value="" style="shape=folder;fontStyle=1;spacingTop=10;tabWidth=46;tabHeight=28;tabPosition=left;html=1;whiteSpace=wrap;" parent="WIyWlLk6GJQsqaUBKTNV-1" vertex="1">
          <mxGeometry x="188" y="889" width="264.5" height="189" as="geometry" />
        </mxCell>
        <mxCell id="wQEvevjcP_nHAKgSfiP8-1" value="Log" style="text;html=1;align=center;verticalAlign=middle;resizable=0;points=[];autosize=1;fontSize=16;fillColor=#60a917;fontColor=#ffffff;strokeColor=#2D7600;" parent="WIyWlLk6GJQsqaUBKTNV-1" vertex="1">
          <mxGeometry x="188" y="888" width="45" height="31" as="geometry" />
        </mxCell>
        <mxCell id="wQEvevjcP_nHAKgSfiP8-2" value="Log Controller" style="swimlane;fontStyle=1;align=center;verticalAlign=top;childLayout=stackLayout;horizontal=1;startSize=26;horizontalStack=0;resizeParent=1;resizeParentMax=0;resizeLast=0;collapsible=1;marginBottom=0;whiteSpace=wrap;html=1;fillColor=#60a917;fontColor=#ffffff;strokeColor=#2D7600;" parent="WIyWlLk6GJQsqaUBKTNV-1" vertex="1">
          <mxGeometry x="225.25" y="948" width="170" height="78" as="geometry" />
        </mxCell>
        <mxCell id="wQEvevjcP_nHAKgSfiP8-3" value="" style="text;strokeColor=#2D7600;fillColor=#60a917;align=left;verticalAlign=top;spacingLeft=4;spacingRight=4;overflow=hidden;rotatable=0;points=[[0,0.5],[1,0.5]];portConstraint=eastwest;whiteSpace=wrap;html=1;fontColor=#ffffff;" parent="wQEvevjcP_nHAKgSfiP8-2" vertex="1">
          <mxGeometry y="26" width="170" height="24" as="geometry" />
        </mxCell>
        <mxCell id="wQEvevjcP_nHAKgSfiP8-4" value="" style="line;strokeWidth=1;fillColor=#fa6800;align=left;verticalAlign=middle;spacingTop=-1;spacingLeft=3;spacingRight=3;rotatable=0;labelPosition=right;points=[];portConstraint=eastwest;strokeColor=#FF8000;fontColor=#000000;" parent="wQEvevjcP_nHAKgSfiP8-2" vertex="1">
          <mxGeometry y="50" width="170" as="geometry" />
        </mxCell>
        <mxCell id="wQEvevjcP_nHAKgSfiP8-5" value="+ aggiungiVoce(Log)" style="text;strokeColor=#2D7600;fillColor=#60a917;align=left;verticalAlign=top;spacingLeft=4;spacingRight=4;overflow=hidden;rotatable=0;points=[[0,0.5],[1,0.5]];portConstraint=eastwest;whiteSpace=wrap;html=1;fontColor=#ffffff;" parent="wQEvevjcP_nHAKgSfiP8-2" vertex="1">
          <mxGeometry y="50" width="170" height="28" as="geometry" />
        </mxCell>
        <mxCell id="wQEvevjcP_nHAKgSfiP8-6" style="edgeStyle=none;curved=1;rounded=0;orthogonalLoop=1;jettySize=auto;html=1;entryX=0.604;entryY=0.013;entryDx=0;entryDy=0;entryPerimeter=0;fontSize=12;startSize=8;endSize=8;dashed=1;" parent="WIyWlLk6GJQsqaUBKTNV-1" target="wQEvevjcP_nHAKgSfiP8-2" edge="1">
          <mxGeometry relative="1" as="geometry">
            <mxPoint x="329" y="816" as="sourcePoint" />
          </mxGeometry>
        </mxCell>
      </root>
    </mxGraphModel>
  </diagram>
</mxfile>
